<svg xmlns="http://www.w3.org/2000/svg" viewBox="0 0 418.68 290.44"><defs><style>.cls-1{fill:#ffaf3f;}.cls-2{fill:#ff6f3f;}.cls-3{fill:#1a2e33;}</style></defs><title>Asset 2</title><g id="Layer_2" data-name="Layer 2"><g id="Layer_4" data-name="Layer 4"><path class="cls-1" d="M418.68,290.19C92.85,253.61,0,.26,0,.26L.2,0S283.84,7.72,418.48,290.44Z"/><path class="cls-2" d="M271.29,142.28c-61.48-31.29-74.68-23.89-78-21-13.14,11.44,10.95,56.06,46.78,83.38,37.07,28.27,88,44,98.44,30.08,9.76-13-17.87-49-22.15-54.59A138,138,0,0,0,271.29,142.28Z"/><path class="cls-3" d="M277.4,227.12c-4,0,50,23,61,7,12.66-18.43-23.5-59.23-21-53,2,5,2.68,18-8,32.16C299.26,226.72,286.88,227.12,277.4,227.12Z"/></g></g></svg>