<?xml version="1.0" encoding="utf-8"?>
<!-- Generator: Adobe Illustrator 23.0.1, SVG Export Plug-In . SVG Version: 6.00 Build 0)  -->
<svg version="1.1" xmlns="http://www.w3.org/2000/svg" xmlns:xlink="http://www.w3.org/1999/xlink" x="0px" y="0px"
	 viewBox="0 0 1920 1080" style="enable-background:new 0 0 1920 1080;" xml:space="preserve">
<style type="text/css">
	.st0{display:none;}
	.st1{fill:#A0AEB0;}
	.st2{fill:#6E868F;}
	.st3{fill:#E5D8CE;}
</style>
<g id="Layer_1" class="st0">
	
		<image style="display:inline;overflow:visible;" width="192" height="108" xlink:href="shore.png"  transform="matrix(10 0 0 10 0 0)">
	</image>
</g>
<g id="Layer_4">
	<path class="st1" d="M0,1080"/>
	<path class="st2" d="M0,120v960h1370c0,0-22.1-81-55.3-122.2c-14.5-18.1-26.3-38.3-34.6-60c0,0-23.4-94.4-60.8-114.7
		c-14.7-8-18.8-0.6-19.8-12.6c0,0-8.3-41.7-36.6-49.3c-8.5-2.3-14.4-9.9-14.4-18.7l0,0c-4-50-93-47-99-54c0,0-10-8-7-21
		c5.9-25.7-93.6-92.7-103-102c-43.7-43-50.1-63.5-118.2-66.6c-13.8-0.6-18.8,2.6-39.7-10.1l-36.3-40.5c-11.3-12.6-27.4-20-44.3-20.3
		l-0.2,0c-17.8-0.3-35.2-5.4-50.5-14.6c-18.9-11.3-48.4-26.2-79.8-31.8c-24-4.3-30-3.1-40-17.1c0,0-19.9-32-57.4-42
		c-17.5-4.7-30.6-1.5-42.6-15c0,0-21.4-47.2-52.3-57.1c-10.6-3.4-14.3,1.4-22.7-5.9c-19.4-16.6-14-40-60-43c0,0-32-9-65,6
		c-19.6,8.9-39,0-39,0c-20.6-6.8-25-34-106-37c-10.8-0.4-21,12-31,3C34.5,115.5,0,120,0,120z"/>
</g>
<g id="Layer_3">
	<path class="st1" d="M0.5,149.5L0,1080h1220c0,0-27.4-117.1-88.5-163.5c-7-5.3-23.4-24-31-36c-10.6-16.8-16.5-44.5-14.5-64.2
		c0,0,7.5-67.9-19.5-83.8c-17-10-15.3-20.4-19-28c-11.8-24.3-37.2-36.3-59-46c-13.2-5.9-46.1-30.5-56-41c-32.8-34.7-92-105-153-97
		c-12.6,1.6-23.1-3.9-35.9-12.9c-13.5-9.6-57.2-20.8-179.5,33.4c-13.6,6-28.3,9.3-43.2,9.6c-40.8,0.7-7.7-12-56.5-11
		c0,0-41.8-1.6-74.9-42.8c-4.9-6-8.1-13.1-11.3-20.1c-5.1-11.5-3.8-29.1-17.8-29.1c-3.1,0-2.2-8.8-11-18c-10.8-11.3-19-4.4-19-20
		v-45c0,0,10-127-123-131c0,0-22-48-58-44c0,0-71-44-114-40H0.5L0.5,149.5z"/>
</g>
<g id="Layer_2">
	<path class="st3" d="M1141,1079.8H-0.3V180c0,0,39.3-6.2,92.8,25.5l119,48c0,0,33-5,68,58c0,0,30.6,8.9,30,85
		c-0.3,36.6,5.9,69.9,27.7,99.3c21.2,28.5,55.3,64,110.3,103.7l123.3-2.8c6.4-0.1,62.7-5.2,89.7-22.2l37-23c0,0,15-10,52,0l27,27
		c0,0,29-13,46,21c2.2,4.4,4.5,9,7.5,12.5c4.4,5.3,12,6.8,18.1,3.5l7.5-4c5.4-2.4,27-11.2,49.9,72.3c1.6,5.9,6.1,10.8,12,12.6
		c5.2,1.6,9,0.9,12.1,9.1c0,0,1.8,6.6,11.5,9.1c5.1,1.3,10.5,0.7,15.4-1.4c3.8-1.7,8.9-3.5,11.2-2.7c0,0,16-2,62,58l7.2,72.5
		c0.4,4.3,4,7.7,8.3,7.9l0,0c9,0.4,17.2,5.4,21.6,13.2l7,12.2c3.8,6.7,4.2,14.4,10.8,18.2l0,0c8.7,5.5,32-4,46,118L1141,1079.8z"/>
</g>
</svg>
