<?xml version="1.0" encoding="utf-8"?>
<!-- Generator: Adobe Illustrator 23.0.1, SVG Export Plug-In . SVG Version: 6.00 Build 0)  -->
<svg version="1.1" id="Layer_1" xmlns="http://www.w3.org/2000/svg" xmlns:xlink="http://www.w3.org/1999/xlink" x="0px" y="0px"
	 viewBox="0 0 1920 1080" style="enable-background:new 0 0 1920 1080;" xml:space="preserve">
<style type="text/css">
	.st0{fill:#83ADBB;}
	.st1{fill:#556F77;}
	.st2{fill:#1A2E33;}
</style>
<path class="st0" d="M1422.5,671.5l-141.8-90v-1.3c0,0-66.2,0.4-95.6-1.3c-5.7-0.7-162.1-18.1-176.3-17.8
	c-0.6,0-159.5-22-227.8-23.3v0.8c-3.6-0.2-239.2-18.4-239.2-18.4c-26.9-0.1-113.2,2.7-116.6,2.7c-23.6-0.1-177.7,8.1-199.9,6.4
	c-17-1.3-148.1,1-148.3,1c-1.6-0.2-64.6,0.3-77,0.7v549h1920V568L1422.5,671.5z"/>
<path class="st1" d="M1801.6,620.3L1468,660.5l-187.3-12c-1.8-0.3-42.1-1.1-60-3.2l-68.3-17.7c0,0-94.2-14.2-111.6-16.7
	c-72.7-10.4-167.2-10.2-240.4-7.9c-7,0.2-146.1-0.6-150.4-1.7c-37-9.3-74.4-13.1-111.7-12.9c-2.2-0.9-141.8,12.8-143.7,13
	c-6.2,0.8-28.9,7.6-34.8,8.7L0,611v469h1920V620L1801.6,620.3z"/>
<path class="st2" d="M1920,786c-29.1,6.2-199.1,2.3-203.8,1.9c-114.5-9.7-229.2-16.8-344-21.3c-114.5-4.4-229.1-6.3-343.6-5.5
	c-60.9,0.4-192.2-3.6-199.7-2.9c-32.9,2.9-65.3-3.1-98-5.6c-48.2-6-96.6-8.6-145.4-6.5c-1.4,0.1-99.9,2.8-147.5-4.8
	c-2.1-0.3-31.4-4.1-35.6-2.4c-52.8,1.8-259.4-5.5-301-12.6C67.2,720.5,35,708.9,0,708v372h1920V786z"/>
</svg>
