<svg id="Layer_1" data-name="Layer 1" xmlns="http://www.w3.org/2000/svg" viewBox="0 0 56.19 844.5"><defs><style>.cls-1{fill:#ed9b3a;}.cls-2{fill:#dd8e37;}.cls-3{fill:#ffaf3f;}</style></defs><title>rope2</title><path class="cls-1" d="M208,191.6a5.75,5.75,0,0,1-.1,1.9c-.5,1.7-2.1,2.5-4.1,2.9a24.2,24.2,0,0,1-7.9-.4c.3-4.6.6-9.6.9-14.6C200.1,181.5,207,182.7,208,191.6Z" transform="translate(-151.85 242.4)"/><path class="cls-1" d="M200.5,38.5c9.6-3.5,5.9,5.4,5.9,5.4a12.82,12.82,0,0,1-1.7,2.2,17.6,17.6,0,0,1-4,3.2C200.7,45.6,200.6,42,200.5,38.5Z" transform="translate(-151.85 242.4)"/><path class="cls-2" d="M204.7,46.1s5,5.4-2.4,9.9l-1.5.5c0-2.4,0-4.8-.1-7.1A18.53,18.53,0,0,0,204.7,46.1Z" transform="translate(-151.85 242.4)"/><path class="cls-3" d="M185.6,523.4s23.8,55.5,18.8,67.3c-12.6-1.5-21.6,11.4-21.6,11.4,3.2-5.8-13.9-67.3-13.9-67.3-5.5-16.1-8.7-35.4-10.4-56.2a20,20,0,0,0,3-.4,25,25,0,0,0,3.1-1s7.2,7.6,13.7,2.5C179.4,495.7,181.2,510.6,185.6,523.4Z" transform="translate(-151.85 242.4)"/><path class="cls-2" d="M182.7,602.1s9-12.9,21.6-11.4C199.5,602.1,182.7,602.1,182.7,602.1Z" transform="translate(-151.85 242.4)"/><path class="cls-2" d="M202.9-124.8c.1,1.9-.9,3.8-2.3,5.6a29.73,29.73,0,0,1-6.2,4.7c.3-4.4.6-8.7.8-13.1C201.8-133.1,202.9-124.8,202.9-124.8Z" transform="translate(-151.85 242.4)"/><path class="cls-3" d="M198.5-241.8a29.59,29.59,0,0,0,7.8-.6s-7,56-11.2,114.8c-.2.2-.5.4-.7.6a14.66,14.66,0,0,1-2.5,4,29.88,29.88,0,0,1-12.7-1.4v-.1c4.4-59.3,11.4-114.8,11.4-114.8A24.92,24.92,0,0,0,198.5-241.8Z" transform="translate(-151.85 242.4)"/><path class="cls-2" d="M195.8,196a27.47,27.47,0,0,0,7.9.4,57.9,57.9,0,0,1-8.2,4.7Q195.65,198.7,195.8,196Z" transform="translate(-151.85 242.4)"/><path class="cls-1" d="M200.5-119.2s6.4,4.4,1.1,6.7a23,23,0,0,1-7.5,1.9c.1-1.3.2-2.5.3-3.8A33.19,33.19,0,0,0,200.5-119.2Z" transform="translate(-151.85 242.4)"/><path class="cls-3" d="M200.8,56.5c.1,38.7-2,85.7-4.1,125a14.07,14.07,0,0,0-1.8.1s-9.3,3.3-14.4.8c2.3-41.8,4.1-90.5,3.3-128.3a13.66,13.66,0,0,0,1.9-.2C190.3,58.8,197.7,57.4,200.8,56.5Z" transform="translate(-151.85 242.4)"/><path class="cls-2" d="M200.7,49.4c.1,2.3.1,4.7.1,7.1-3.1.9-10.5,2.3-15.1-2.6A38.65,38.65,0,0,0,200.7,49.4Z" transform="translate(-151.85 242.4)"/><path class="cls-1" d="M200.5,38.5c.1,3.5.2,7.1.2,10.9a35.53,35.53,0,0,1-15,4.5,13.66,13.66,0,0,1-1.9.2c0-3.3-.1-6.6-.2-9.7A31.1,31.1,0,0,0,195.8,41a10.91,10.91,0,0,0,1.1-.6h.1a12.29,12.29,0,0,0,2.4-1.5C199.9,38.7,200.2,38.6,200.5,38.5Z" transform="translate(-151.85 242.4)"/><path class="cls-3" d="M200.5,38.5a6.89,6.89,0,0,0-1,.4s-.9.6-2.4,1.5H197c-2.8.7-6.7-2.1-6.7-2.1a32.46,32.46,0,0,0-7.1-4c-.7-13.3-2-24.1-3.7-31.6-5.2-21.5-4.2-66.4-1.3-111.7a19.46,19.46,0,0,0,5.6-.4s1.1-.4,2.7-1.1a35.13,35.13,0,0,0,7.5-.1c-2.3,41.3-2.8,81.4,2.2,101.8C198.7,1.4,200,18.2,200.5,38.5Z" transform="translate(-151.85 242.4)"/><path class="cls-2" d="M197,40.4a10.91,10.91,0,0,1-1.1.6,29.5,29.5,0,0,1-12.2,3.4c-.2-3.5-.3-6.9-.5-10.1a32.46,32.46,0,0,1,7.1,4S194.2,41.1,197,40.4Z" transform="translate(-151.85 242.4)"/><path class="cls-1" d="M194.9,181.5a14.07,14.07,0,0,1,1.8-.1c-.3,5-.6,9.9-.9,14.6a88.82,88.82,0,0,1-15.8-4.4c.2-3.1.4-6.1.5-9.3C185.7,184.9,194.9,181.5,194.9,181.5Z" transform="translate(-151.85 242.4)"/><path class="cls-2" d="M195.8,196c-.1,1.8-.2,3.4-.3,5.1a1.33,1.33,0,0,0-.7.3c-5,2.1-11,3.8-15.5,1.4.3-3.6.5-7.3.7-11.1A92.14,92.14,0,0,0,195.8,196Z" transform="translate(-151.85 242.4)"/><path class="cls-3" d="M195.5,201.1c-.1,1.1-.2,2.3-.3,3.4a4.2,4.2,0,0,1-.5-.2l.1-3A2.54,2.54,0,0,1,195.5,201.1Z" transform="translate(-151.85 242.4)"/><path class="cls-2" d="M194.5-126.9a1.87,1.87,0,0,1,.7-.6c-.2,4.4-.5,8.7-.8,13.1a56.25,56.25,0,0,1-7.8,3.9l-2.7,1.1a19.26,19.26,0,0,1-5.6.4c.1-2.7.3-5.4.5-8.1,6.8-.2,10.9-3.2,13.2-5.8A14.66,14.66,0,0,0,194.5-126.9Z" transform="translate(-151.85 242.4)"/><path class="cls-3" d="M194.9,201.4l-.1,3a4.2,4.2,0,0,0,.5.2c-2.1,33.3-3.9,56.8-3.9,56.8s-3.9,22.6-7.7,55.8c-.6.2-1.3.6-2.1.9a28.62,28.62,0,0,1-12.4,3.6l-.2.2a10.21,10.21,0,0,1-2-2.2c4-28.2,7.7-46.8,7.7-46.8s2.3-29.8,4.7-69.9C183.9,205.2,189.9,203.5,194.9,201.4Z" transform="translate(-151.85 242.4)"/><path class="cls-1" d="M194.4-114.5c-.1,1.3-.2,2.5-.3,3.8a35.13,35.13,0,0,1-7.5.1A62.38,62.38,0,0,0,194.4-114.5Z" transform="translate(-151.85 242.4)"/><path class="cls-1" d="M179.2-124.3a29.88,29.88,0,0,0,12.7,1.4,17.8,17.8,0,0,1-13.2,5.8C178.9-119.6,179.1-121.9,179.2-124.3Z" transform="translate(-151.85 242.4)"/><path class="cls-1" d="M183.6,317.1c7.5-2.8,7.6,5.2,3,7.3a31.44,31.44,0,0,1-4,.8C183,322.5,183.3,319.8,183.6,317.1Z" transform="translate(-151.85 242.4)"/><path class="cls-2" d="M186.6,324.4s8.3,8.3-4.8,9.1c.3-2.8.6-5.6.8-8.3A18.91,18.91,0,0,0,186.6,324.4Z" transform="translate(-151.85 242.4)"/><path class="cls-1" d="M183.7,44.3c.1,3.2.2,6.4.2,9.7a44.38,44.38,0,0,1-7.5.1c-15-2.7-1.7-10.9-1.7-10.9A20.47,20.47,0,0,0,183.7,44.3Z" transform="translate(-151.85 242.4)"/><path class="cls-1" d="M179.3,469a9.34,9.34,0,0,1-1.5,1.3c-.3-5.2-.5-10.6-.8-16v-.2s9-2.2,6.3,8.4A13.45,13.45,0,0,1,179.3,469Z" transform="translate(-151.85 242.4)"/><path class="cls-2" d="M183.7,44.3a21.92,21.92,0,0,1-9-1,3.83,3.83,0,0,1-1.4-2.4c.6-8.1,5.5-8.2,9.9-6.7C183.4,37.5,183.5,40.8,183.7,44.3Z" transform="translate(-151.85 242.4)"/><path class="cls-3" d="M181.5,318a16.46,16.46,0,0,1,2.1-.9c-.3,2.7-.6,5.4-1,8.2-7,1-11.4-1.5-13.7-3.4l.2-.2A31.09,31.09,0,0,0,181.5,318Z" transform="translate(-151.85 242.4)"/><path class="cls-2" d="M168.9,321.8c2.3,1.9,6.7,4.5,13.7,3.4-.2,2.7-.5,5.5-.8,8.3a15.52,15.52,0,0,1-2.3.1s-1.1-.2-2.8-.6a64.55,64.55,0,0,1-11.2-3.6c.5-3.3.9-6.6,1.4-9.7C167,319.6,167.5,320.6,168.9,321.8Z" transform="translate(-151.85 242.4)"/><path class="cls-3" d="M179.6,333.6a15.52,15.52,0,0,0,2.3-.1c-3.8,35.9-6.7,80.2-4.8,120.7v.1l-.1.1c-5.2,8.3-18.7,7.8-18.7,7.8a1.73,1.73,0,0,0-.7.2c-1.8-43.8,2.6-91.7,7.4-128.4a35.79,35.79,0,0,0,11.7-1C178.5,333.4,179.6,333.6,179.6,333.6Z" transform="translate(-151.85 242.4)"/><path class="cls-1" d="M179.6,181.7a2.66,2.66,0,0,0,1,.6c-.1,3.2-.3,6.2-.5,9.3-1.6-.6-2.5-.9-2.5-.9C170.7,182.9,179.6,181.7,179.6,181.7Z" transform="translate(-151.85 242.4)"/><path class="cls-2" d="M179.3,469c5,6.4-.6,10.4-.6,10.4s-.3.2-.4.3c-.2-3.1-.4-6.2-.5-9.4A6.1,6.1,0,0,0,179.3,469Z" transform="translate(-151.85 242.4)"/><path class="cls-2" d="M180.1,191.7c-.2,3.8-.4,7.5-.7,11.1a6.06,6.06,0,0,1-2.6-1.9s-6.7-4.2.8-10.2A24.37,24.37,0,0,0,180.1,191.7Z" transform="translate(-151.85 242.4)"/><path class="cls-1" d="M179.2-124.4h0c-.1,2.5-.3,4.8-.5,7.2a21.14,21.14,0,0,1-3.5-.2c-5.3-1.4-6.6-10.6,3.8-7.1C179.1-124.4,179.1-124.4,179.2-124.4Z" transform="translate(-151.85 242.4)"/><path class="cls-2" d="M175.2-117.3a21.75,21.75,0,0,0,3.5.2c-.2,2.7-.4,5.4-.5,8.1C169.7-109.6,175.2-117.3,175.2-117.3Z" transform="translate(-151.85 242.4)"/><path class="cls-2" d="M177.8,470.3c.1,3.2.3,6.3.5,9.4-6.5,5.1-13.7-2.5-13.7-2.5A42.09,42.09,0,0,0,177.8,470.3Z" transform="translate(-151.85 242.4)"/><path class="cls-1" d="M177,454.4c.3,5.4.5,10.8.8,16a44.31,44.31,0,0,1-13.2,6.9c-1.9.7-3.1,1-3.1,1a22.94,22.94,0,0,1-3,.4c-.2-3-.4-5.9-.6-8.9,6.2-2.2,17.1-6.9,19.1-15.4Z" transform="translate(-151.85 242.4)"/><polygon class="cls-3" points="25.15 696.7 25.15 696.8 25.05 696.8 25.15 696.7"/><path class="cls-1" d="M165.6,329.3a53,53,0,0,0,11.2,3.6,36.26,36.26,0,0,1-11.7,1C165.2,332.4,165.4,330.8,165.6,329.3Z" transform="translate(-151.85 242.4)"/><path class="cls-2" d="M176.9,454.4c-2,8.5-12.8,13.3-19.1,15.3-.1-2.4-.2-4.8-.3-7.3a1.73,1.73,0,0,1,.7-.2S171.8,462.6,176.9,454.4Z" transform="translate(-151.85 242.4)"/><path class="cls-2" d="M167,319.6c-.5,3.2-.9,6.4-1.4,9.7a27.52,27.52,0,0,1-4.2-2.6,7.35,7.35,0,0,1-3.3-5S158.5,314,167,319.6Z" transform="translate(-151.85 242.4)"/><path class="cls-1" d="M165.6,329.3c-.2,1.5-.4,3.1-.6,4.6a14.08,14.08,0,0,1-3.5-.5c-5.7-1.4-.1-6.8-.1-6.8A17.81,17.81,0,0,0,165.6,329.3Z" transform="translate(-151.85 242.4)"/><path class="cls-1" d="M157.9,469.7c.2,3,.4,5.9.6,8.9-3.8.3-9.4-.5-5.1-7.6,0,0,.4-.1,1.1-.2C155.2,470.5,156.4,470.2,157.9,469.7Z" transform="translate(-151.85 242.4)"/></svg>