<svg id="Layer_1" data-name="Layer 1" xmlns="http://www.w3.org/2000/svg" viewBox="0 0 33.05 58.2"><defs><style>.cls-1{fill:#dd8e37;}.cls-2{fill:#ed9b3a;}.cls-3{fill:#ffaf3f;}</style></defs><title>rope1</title><path class="cls-1" d="M194,202.7s6.6,3.1,1.8,7.7a15.55,15.55,0,0,1-7.4,3.3,35.66,35.66,0,0,1-7.8.6A35.56,35.56,0,0,0,193,204.1C192.9,204,193.5,203.6,194,202.7Z" transform="translate(-164.5 -158.6)"/><path class="cls-2" d="M191,193.2c5.4,3.6,4.2,7.5,2.9,9.5a5.34,5.34,0,0,1-1.1,1.4,35.56,35.56,0,0,1-12.4,10.2,28.64,28.64,0,0,1-7.9,2.5c-13.3-.4-5-11-5-11,9-1,13.1-5.1,15-8.1a9.37,9.37,0,0,0,1.4-3.3c2.3-1.5,4.2-1.8,5.4-1.6A2.85,2.85,0,0,1,191,193.2Z" transform="translate(-164.5 -158.6)"/><path class="cls-3" d="M186.1,167.8s5.9,17.3,3.1,24.9v.1c-1.2-.2-3,.1-5.4,1.6a8.67,8.67,0,0,1-1.4,3.3c-.1.8-10,.6-10,0,2.3-10.8-1.2-25-1.2-25l-6.7.6C164.7,173.2,175.7,144.3,186.1,167.8Z" transform="translate(-164.5 -158.6)"/><path class="cls-1" d="M182.5,197.6c-1.9,3-6,7.1-15,8.1-8.5-10.3,5-8.1,5-8.1C172.5,198.2,182.4,198.5,182.5,197.6Z" transform="translate(-164.5 -158.6)"/></svg>