<?xml version="1.0" encoding="utf-8"?>
<!-- Generator: Adobe Illustrator 23.0.1, SVG Export Plug-In . SVG Version: 6.00 Build 0)  -->
<svg version="1.1" id="Layer_1" xmlns="http://www.w3.org/2000/svg" xmlns:xlink="http://www.w3.org/1999/xlink" x="0px" y="0px"
	 viewBox="0 0 1920 1080" style="enable-background:new 0 0 1920 1080;" xml:space="preserve">
<style type="text/css">
	.st0{fill:#F46A45;}
	.st1{fill:#EA6147;}
	.st2{fill:#754D44;}
	.st3{fill:#FF6F3F;}
	.st4{fill:#FFAF3F;}
	.st5{fill:#DD8E37;}
	.st6{fill:#ED9B3A;}
</style>
<image style="display:none;overflow:visible;enable-background:new    ;" width="187" height="105" xlink:href="44A71169.jpeg"  transform="matrix(10.2674 0 0 10.2674 0 0.9626)">
</image>
<g id="XMLID_3_">
	<g>
		<path class="st0" d="M1734.1,157v37.2c0,0-1.9-0.3-5.1-0.8s-7.8-1-13.4-1.7c-4.2-0.4-9.1-0.8-14.3-1c-2.1-0.1-4.1-0.3-6.2-0.3
			c-7.1-0.3-14.4-0.1-21.3,0.4c-8.5,0.6-16.6,2.1-23.2,4.6l-3.2-38.5C1647.4,157,1706.2,150.7,1734.1,157z"/>
		<path class="st1" d="M1729,193.5c4.1,46.1-12.6,118.6-12.6,118.6c-2.3,2.7-4.5,5.4-6.5,8c-5.6-30.4,5.8-128.3,5.8-128.3
			C1721.1,192.4,1725.7,193,1729,193.5z"/>
		<path class="st0" d="M1689.3,296.6c-1.7-46.9,12.1-105.8,12.1-105.8c5.1,0.3,10,0.6,14.3,1c0,0-11.4,97.8-5.8,128.3
			c-10.8,13.4-19.4,25.3-26.2,35.4c-31.8-49.4-9.8-164.6-9.8-164.6c6.9-0.5,14.3-0.6,21.3-0.4
			C1685.7,219.8,1687.5,270.3,1689.3,296.6z M1689.5,300.3c0.1,4.2,0.5,8.3,1,12.3C1690.4,310.6,1689.9,306.3,1689.5,300.3z"/>
		<path class="st2" d="M1689.5,300.3c0.4,6,0.9,10.3,1,12.3C1690.1,308.6,1689.7,304.5,1689.5,300.3z"/>
		<path class="st3" d="M1683.6,355.5c-15.1,22.6-21.1,36.1-21.1,36.1v-36.1l-11.9-160c6.7-2.6,14.8-4,23.2-4.6
			C1673.9,190.9,1651.8,306.1,1683.6,355.5z"/>
		<path class="st3" d="M1487.7,357l8-0.1l27.3-0.3l37.7-0.3l11.9-0.1l34.5-0.3l35.3-0.4l20-0.1v36.1c0,0-15.2-3.6-33.3-4
			s-213.9-1.3-213.9-1.3s-29.3,2.3-74.6,10.4l-6.4-38.4l12.5-0.1l30.9-0.3h3.3l31.1-0.3l9.2-0.1l27.7-0.3l15.7-0.1L1487.7,357z"/>
		<path class="st3" d="M1554.9,200.3l-41.1,2.1l-27.1,1.3l-7.4,0.8l-5.4,0.6l-32.4,3.5l-7.6,0.8l-30.8,3.3l-5,0.5l-32.5,3.5
			l-7.2,0.8l-30.9,3.3l-19.3,2.1l-8-36.1c0,0,167.4-15.8,347.2-29.7l3.2,38.5l-5.6,0.3l-43.7,2.2l-9.8,0.5l-32.5,1.5L1554.9,200.3z"
			/>
		<path class="st1" d="M1601.3,198l43.7-2.2c0,0-0.8,139.2-2.4,159.8l-35.3,0.4v-0.5c-0.6-0.9-1.3-2.8-1.9-5.9c0,0,0,0,0-0.1
			C1608.1,343.9,1601.3,198,1601.3,198z"/>
		<path class="st0" d="M1607.2,355.5v0.5l-34.5,0.3v-0.8c-12.8-8.1-13.6-155.5-13.6-155.5l32.5-1.5c0,0,7.3,121.3,13.7,151
			c0,0.1,0,0.1,0,0.1C1606,352.7,1606.6,354.6,1607.2,355.5z"/>
		<path class="st1" d="M1560.8,356.4l-37.7,0.3c-7.2-11.2-9.2-154.3-9.2-154.3l41.1-2.1C1554.6,207.1,1549.3,340.7,1560.8,356.4z"/>
		<path class="st3" d="M1523,356.7l-27.3,0.3v-0.3c-7.6-20.4-16.4-151.9-16.4-151.9v-0.4l7.4-0.8l27.1-1.3
			C1513.8,202.3,1515.8,345.5,1523,356.7z"/>
		<polygon class="st1" points="1473.8,205 1487.7,357 1464.9,357.2 1441.5,208.5 		"/>
		<polygon class="st1" points="1433.9,209.3 1449.2,357.3 1421.5,357.6 1403.1,213.1 1403.1,212.6 		"/>
		<path class="st0" d="M1412.2,357.7l-31.1,0.3v-0.6l-15.5-140.7l32.5-3.5C1398.1,213.1,1397.1,342.1,1412.2,357.7z"/>
		<polygon class="st0" points="1358.4,217.4 1377.8,357.9 1346.9,358.2 1327.5,220.7 		"/>
	</g>
</g>
<g id="XMLID_6_">
	<g>
		<path class="st4" d="M1614.9,160.9l-11.8,1.3h-0.2c-6.5-1.5-15-0.1-15-0.1v0.1c-1.1-0.4-2.1-0.7-3-0.9
			C1585.8,159.3,1598.1,137.4,1614.9,160.9z"/>
		<path class="st5" d="M1603,162.1c5.5,1.4,9.3,4.7,4.8,12.9c-1-1.3-2.2-2.2-2.2-2.2s-8.3-6.9-16.1-10.2c-0.6-0.2-1.2-0.5-1.7-0.6
			l0,0c0,0,8.5-1.4,15,0.1H1603z"/>
		<path class="st6" d="M1607.8,175c1.9,2.2,3.2,5.4-2.2,7.4c-1.1,0.4-2.3,0.5-3.4,0.3c-1.5-0.1-3-0.6-4.7-1.2
			c-6.4-2.6-13.4-8.3-16.4-11.1c-1-0.8-1.6-1.4-1.6-1.4s-4.5-9.3,4.5-8.1c0.2,0,0.4,0.1,0.7,0.2c0,0,0,0,0.1,0c1,0.2,2,0.5,3,0.9
			c0.5,0.1,1.1,0.4,1.7,0.6c7.8,3.3,16.1,10.2,16.1,10.2S1606.9,173.8,1607.8,175z"/>
		<path class="st4" d="M1602.3,182.9c13.4,63.5-42.4,71.3-42.4,71.3c-1.7-2.8-4.8-9.2-2.8-13.4c0,0,46.6-14,32.5-57.8
			c2.2-0.1,4.8-0.5,8-1.4C1599.2,182.2,1600.8,182.7,1602.3,182.9L1602.3,182.9z"/>
		<path class="st5" d="M1597.6,181.6c-3.2,0.9-5.9,1.3-8,1.4c-14.1,0.6-8.4-12.4-8.4-12.4C1584.2,173.3,1591.2,179,1597.6,181.6z"/>
		<path class="st6" d="M1560.8,255.8c0,0,4.5,11-7.2,15.1c-0.8,0.3-1.5,0.4-2.1,0.4c-1.8-0.1-3-1.4-3.9-3.3
			c-3.3-7.8-0.2-26.9-0.2-26.9c6.4-8.5,9.7-0.2,9.7-0.2c-2,4.2,1.2,10.6,2.8,13.4C1560.4,255.2,1560.8,255.8,1560.8,255.8z"/>
		<path class="st6" d="M1551.5,271.2l-0.1,0.5c-2.4,4.7-10.4,0.6-10.4,0.6c-4.6-3.5-3.8-10.3-3.7-11.2c1-0.2,2-0.4,3-0.7h0.1
			c3.4,4.3,7.1,7.4,7.1,7.4C1548.4,269.9,1549.7,271.1,1551.5,271.2z"/>
		<path class="st5" d="M1547.4,241c0,0-3.1,19.1,0.2,26.9c0,0-3.7-3.1-7.1-7.4h-0.1c-2.9-3.8-5.7-8.5-5.4-12.9
			c0.1-1.7,0.7-3.3,1.8-4.8C1536.7,242.8,1539.4,235.2,1547.4,241z"/>
		<path class="st4" d="M1540.3,260.5l-3,0.6c0,0,0,0,0,0.1c-56.4,12.1-75.7-45.8-75.7-45.8c4.3,0.5,10.2,0.6,14.5-1.7
			c0,0,16,40.7,58.9,33.9C1534.6,252,1537.4,256.7,1540.3,260.5z"/>
		<path class="st6" d="M1463.6,196.5c1.5-0.7,2.9-1.2,4.3-1.5c4.2-1.1,8.3-1,11.4,1.4c0,0,4.2,2.7,2.3,6.3c0,0-22.1,4-25.6,11.6
			c0,0-11.3,1.4-8.3-8.1C1447.5,206.2,1455.3,199.8,1463.6,196.5z"/>
		<path class="st5" d="M1481.5,202.6c0.3,5.9-2.1,9.3-5.5,11.1c-4.3,2.3-10.2,2.2-14.5,1.7c-3.3-0.4-5.7-1.1-5.7-1.1
			C1459.4,206.7,1481.5,202.6,1481.5,202.6z"/>
		<path class="st4" d="M1467.9,195c-1.4,0.3-2.8,0.8-4.3,1.5c-0.9-0.3-5.7-1.8-10.7-2.3v-0.1c0,0-6.1-18.7-13.4-18.7l-5.7,0.4
			c0,0,8.8-11.9,22-1.8C1455.9,174.1,1465.2,182.6,1467.9,195z"/>
		<path class="st5" d="M1452.9,194.2c5,0.5,9.8,2,10.7,2.3c-8.3,3.3-16,9.7-16,9.7c-5.4,1-6.2-2.4-6.2-2.4
			C1439.2,194.9,1446.3,193.6,1452.9,194.2z"/>
	</g>
</g>
<g id="XMLID_7_">
	<g>
		<path class="st5" d="M1691,184.7c0,0,6.6,3.1,1.8,7.7c-2,1.8-4.8,2.8-7.4,3.3c-4.1,0.8-7.8,0.6-7.8,0.6c3.8-1.9,8.4-5,12.4-10.2
			C1689.9,186,1690.5,185.6,1691,184.7z"/>
		<path class="st6" d="M1688,175.2c5.4,3.6,4.2,7.5,2.9,9.5c-0.5,0.9-1.1,1.4-1.1,1.4c-4,5.2-8.6,8.3-12.4,10.2
			c-4.5,2.1-7.9,2.5-7.9,2.5c-13.3-0.4-5-11-5-11c9-1,13.1-5.1,15-8.1c1.2-1.9,1.4-3.3,1.4-3.3c2.3-1.5,4.2-1.8,5.4-1.6
			C1687.5,174.8,1688,175.2,1688,175.2z"/>
		<path class="st6" d="M1687,629.6c0.1,0.7,0,1.4-0.1,1.9c-0.5,1.7-2.1,2.5-4.1,2.9c-2.2,0.4-5,0.1-7.9-0.4
			c0.3-4.6,0.6-9.6,0.9-14.6C1679.1,619.5,1686,620.7,1687,629.6z"/>
		<path class="st4" d="M1683.1,149.8c0,0,5.9,17.3,3.1,24.9v0.1c-1.2-0.2-3,0.1-5.4,1.6c0,0-0.2,1.5-1.4,3.3c-0.1,0.8-10,0.6-10,0
			c2.3-10.8-1.2-25-1.2-25l-6.7,0.6C1661.7,155.2,1672.7,126.3,1683.1,149.8z"/>
		<path class="st6" d="M1679.5,476.5c9.6-3.5,5.9,5.4,5.9,5.4c-0.5,0.8-1.1,1.6-1.7,2.2c-1.2,1.3-2.5,2.3-4,3.2
			C1679.7,483.6,1679.6,480,1679.5,476.5z"/>
		<path class="st5" d="M1683.7,484.1c0,0,5,5.4-2.4,9.9c0,0-0.6,0.2-1.5,0.5c0-2.4,0-4.8-0.1-7.1
			C1681.2,486.4,1682.6,485.4,1683.7,484.1z"/>
		<path class="st4" d="M1664.6,961.4c0,0,23.8,55.5,18.8,67.3c-12.6-1.5-21.6,11.4-21.6,11.4c3.2-5.8-13.9-67.3-13.9-67.3
			c-5.5-16.1-8.7-35.4-10.4-56.2c1.7-0.1,3-0.4,3-0.4s1.3-0.3,3.1-1c0,0,7.2,7.6,13.7,2.5C1658.4,933.7,1660.2,948.6,1664.6,961.4z"
			/>
		<path class="st5" d="M1661.7,1040.1c0,0,9-12.9,21.6-11.4C1678.5,1040.1,1661.7,1040.1,1661.7,1040.1z"/>
		<path class="st5" d="M1681.9,313.2c0.1,1.9-0.9,3.8-2.3,5.6c-1.7,1.8-3.9,3.3-6.2,4.7c0.3-4.4,0.6-8.7,0.8-13.1
			C1680.8,304.9,1681.9,313.2,1681.9,313.2z"/>
		<path class="st4" d="M1677.5,196.2c0,0,3.7,0.3,7.8-0.6c0,0-7,56-11.2,114.8c-0.2,0.2-0.5,0.4-0.7,0.6c0,0-0.7,1.9-2.5,4
			c0,0-5.5,0.9-12.7-1.4v-0.1c4.4-59.3,11.4-114.8,11.4-114.8S1673,198.4,1677.5,196.2z"/>
		<path class="st5" d="M1674.8,634c2.9,0.5,5.8,0.7,7.9,0.4c0,0-3.5,2.5-8.2,4.7C1674.6,637.5,1674.7,635.8,1674.8,634z"/>
		<path class="st6" d="M1679.5,318.8c0,0,6.4,4.4,1.1,6.7c-2.4,1.1-5.1,1.7-7.5,1.9c0.1-1.3,0.2-2.5,0.3-3.8
			C1675.6,322.1,1677.9,320.6,1679.5,318.8z"/>
		<path class="st4" d="M1679.8,494.5c0.1,38.7-2,85.7-4.1,125c-1.1,0-1.8,0.1-1.8,0.1s-9.3,3.3-14.4,0.8
			c2.3-41.8,4.1-90.5,3.3-128.3c0.6,0,1.2-0.1,1.9-0.2C1669.3,496.8,1676.7,495.4,1679.8,494.5z"/>
		<path class="st5" d="M1679.7,487.4c0.1,2.3,0.1,4.7,0.1,7.1c-3.1,0.9-10.5,2.3-15.1-2.6C1669.4,491.4,1675.1,490.1,1679.7,487.4z"
			/>
		<path class="st6" d="M1679.5,476.5c0.1,3.5,0.2,7.1,0.2,10.9c-4.6,2.8-10.3,4.1-15,4.5c-0.7,0.1-1.3,0.2-1.9,0.2
			c0-3.3-0.1-6.6-0.2-9.7c5-0.3,9.3-1.9,12.2-3.4c0.4-0.2,0.8-0.4,1.1-0.6h0.1c1.6-0.8,2.4-1.5,2.4-1.5
			C1678.9,476.7,1679.2,476.6,1679.5,476.5z"/>
		<path class="st4" d="M1679.5,476.5c-0.3,0.1-0.6,0.2-1,0.4c0,0-0.9,0.6-2.4,1.5h-0.1c-2.8,0.7-6.7-2.1-6.7-2.1s-3.4-2.6-7.1-4
			c-0.7-13.3-2-24.1-3.7-31.6c-5.2-21.5-4.2-66.4-1.3-111.7c1.5,0.2,3.2,0,5.6-0.4c0,0,1.1-0.4,2.7-1.1c0,0,3.4,0.4,7.5-0.1
			c-2.3,41.3-2.8,81.4,2.2,101.8C1677.7,439.4,1679,456.2,1679.5,476.5z"/>
		<path class="st5" d="M1679.5,179.6c-1.9,3-6,7.1-15,8.1c-8.5-10.3,5-8.1,5-8.1C1669.5,180.2,1679.4,180.5,1679.5,179.6z"/>
		<path class="st5" d="M1676,478.4c-0.3,0.2-0.7,0.4-1.1,0.6c-2.9,1.5-7.2,3.2-12.2,3.4c-0.2-3.5-0.3-6.9-0.5-10.1
			c3.7,1.4,7.1,4,7.1,4S1673.2,479.1,1676,478.4z"/>
		<path class="st6" d="M1673.9,619.5c0,0,0.7-0.1,1.8-0.1c-0.3,5-0.6,9.9-0.9,14.6c-5.8-0.9-12.3-3.1-15.8-4.4
			c0.2-3.1,0.4-6.1,0.5-9.3C1664.7,622.9,1673.9,619.5,1673.9,619.5z"/>
		<path class="st5" d="M1674.8,634c-0.1,1.8-0.2,3.4-0.3,5.1c-0.2,0-0.4,0.1-0.7,0.3c-5,2.1-11,3.8-15.5,1.4
			c0.3-3.6,0.5-7.3,0.7-11.1C1662.5,631,1669.1,633.1,1674.8,634z"/>
		<path class="st4" d="M1674.5,639.1c-0.1,1.1-0.2,2.3-0.3,3.4c-0.3-0.1-0.5-0.2-0.5-0.2l0.1-3
			C1674.1,639.2,1674.3,639.1,1674.5,639.1z"/>
		<path class="st5" d="M1673.5,311.1c0.2-0.3,0.5-0.5,0.7-0.6c-0.2,4.4-0.5,8.7-0.8,13.1c-2.8,1.7-5.8,3.1-7.8,3.9
			c-1.7,0.7-2.7,1.1-2.7,1.1c-2.3,0.4-4.1,0.6-5.6,0.4c0.1-2.7,0.3-5.4,0.5-8.1c6.8-0.2,10.9-3.2,13.2-5.8
			C1672.8,313,1673.5,311.1,1673.5,311.1z"/>
		<path class="st4" d="M1673.9,639.4l-0.1,3c0,0,0.2,0.1,0.5,0.2c-2.1,33.3-3.9,56.8-3.9,56.8s-3.9,22.6-7.7,55.8
			c-0.6,0.2-1.3,0.6-2.1,0.9c-6.6,3.5-11.9,3.6-12.4,3.6l-0.2,0.2c-1.4-1.2-2-2.2-2-2.2c4-28.2,7.7-46.8,7.7-46.8s2.3-29.8,4.7-69.9
			C1662.9,643.2,1668.9,641.5,1673.9,639.4z"/>
		<path class="st6" d="M1673.4,323.5c-0.1,1.3-0.2,2.5-0.3,3.8c-4.1,0.5-7.5,0.1-7.5,0.1C1667.6,326.6,1670.5,325.2,1673.4,323.5z"
			/>
		<path class="st6" d="M1658.2,313.7c7.2,2.3,12.7,1.4,12.7,1.4c-2.3,2.6-6.5,5.6-13.2,5.8C1657.9,318.4,1658.1,316.1,1658.2,313.7z
			"/>
		<path class="st6" d="M1662.6,755.1c7.5-2.8,7.6,5.2,3,7.3c-1.4,0.4-2.7,0.6-4,0.8C1662,760.5,1662.3,757.8,1662.6,755.1z"/>
		<path class="st5" d="M1665.6,762.4c0,0,8.3,8.3-4.8,9.1c0.3-2.8,0.6-5.6,0.8-8.3C1662.9,763.1,1664.3,762.8,1665.6,762.4z"/>
		<path class="st6" d="M1662.7,482.3c0.1,3.2,0.2,6.4,0.2,9.7c-4.4,0.4-7.5,0.1-7.5,0.1c-15-2.7-1.7-10.9-1.7-10.9
			C1656.8,482.3,1659.9,482.6,1662.7,482.3z"/>
		<path class="st6" d="M1658.3,907c-0.4,0.5-1,0.9-1.5,1.3c-0.3-5.2-0.5-10.6-0.8-16v-0.1v-0.1c0,0,9-2.2,6.3,8.4
			C1661.7,903,1660.2,905.2,1658.3,907z"/>
		<path class="st5" d="M1662.7,482.3c-2.8,0.3-5.9,0-9-1c-1.3-1.3-1.4-2.2-1.4-2.4c0.6-8.1,5.5-8.2,9.9-6.7
			C1662.4,475.5,1662.5,478.8,1662.7,482.3z"/>
		<path class="st4" d="M1660.5,756c0.8-0.4,1.5-0.7,2.1-0.9c-0.3,2.7-0.6,5.4-1,8.2c-7,1-11.4-1.5-13.7-3.4l0.2-0.2
			C1648.6,759.6,1654,759.5,1660.5,756z"/>
		<path class="st5" d="M1647.9,759.8c2.3,1.9,6.7,4.5,13.7,3.4c-0.2,2.7-0.5,5.5-0.8,8.3c-0.6,0.1-1.4,0.1-2.3,0.1
			c0,0-1.1-0.2-2.8-0.6c-2.8-0.6-7.3-1.9-11.2-3.6c0.5-3.3,0.9-6.6,1.4-9.7C1646,757.6,1646.5,758.6,1647.9,759.8z"/>
		<path class="st4" d="M1658.6,771.6c0.9,0,1.7,0,2.3-0.1c-3.8,35.9-6.7,80.2-4.8,120.7v0.1l-0.1,0.1c-5.2,8.3-18.7,7.8-18.7,7.8
			s-0.3,0-0.7,0.2c-1.8-43.8,2.6-91.7,7.4-128.4c6,0.6,11.7-1,11.7-1C1657.5,771.4,1658.6,771.6,1658.6,771.6z"/>
		<path class="st6" d="M1658.6,619.7c0.3,0.3,0.7,0.5,1,0.6c-0.1,3.2-0.3,6.2-0.5,9.3c-1.6-0.6-2.5-0.9-2.5-0.9
			C1649.7,620.9,1658.6,619.7,1658.6,619.7z"/>
		<path class="st5" d="M1658.3,907c5,6.4-0.6,10.4-0.6,10.4c-0.1,0.1-0.3,0.2-0.4,0.3c-0.2-3.1-0.4-6.2-0.5-9.4
			C1657.3,908,1657.9,907.5,1658.3,907z"/>
		<path class="st5" d="M1659.1,629.7c-0.2,3.8-0.4,7.5-0.7,11.1c-1-0.4-1.9-1-2.6-1.9c0,0-6.7-4.2,0.8-10.2
			C1656.5,628.7,1657.5,629.1,1659.1,629.7z"/>
		<path class="st6" d="M1658.2,313.6L1658.2,313.6c-0.1,2.5-0.3,4.8-0.5,7.2c-1.1,0-2.3,0-3.5-0.2c-5.3-1.4-6.6-10.6,3.8-7.1
			C1658.1,313.6,1658.1,313.6,1658.2,313.6z"/>
		<path class="st5" d="M1654.2,320.7c1.3,0.2,2.4,0.2,3.5,0.2c-0.2,2.7-0.4,5.4-0.5,8.1C1648.7,328.4,1654.2,320.7,1654.2,320.7z"/>
		<path class="st5" d="M1656.8,908.3c0.1,3.2,0.3,6.3,0.5,9.4c-6.5,5.1-13.7-2.5-13.7-2.5C1647,914.1,1652.6,911.8,1656.8,908.3z"/>
		<path class="st6" d="M1656,892.4c0.3,5.4,0.5,10.8,0.8,16c-4.2,3.4-9.8,5.8-13.2,6.9c-1.9,0.7-3.1,1-3.1,1s-1.4,0.3-3,0.4
			c-0.2-3-0.4-5.9-0.6-8.9C1643.1,905.6,1654,900.9,1656,892.4L1656,892.4z"/>
		<polygon class="st4" points="1656,892.3 1656,892.4 1655.9,892.4 		"/>
		<path class="st6" d="M1644.6,767.3c3.8,1.8,8.3,3,11.2,3.6c0,0-5.8,1.6-11.7,1C1644.2,770.4,1644.4,768.8,1644.6,767.3z"/>
		<path class="st5" d="M1655.9,892.4c-2,8.5-12.8,13.3-19.1,15.3c-0.1-2.4-0.2-4.8-0.3-7.3c0.4-0.2,0.7-0.2,0.7-0.2
			S1650.8,900.6,1655.9,892.4z"/>
		<path class="st5" d="M1646,757.6c-0.5,3.2-0.9,6.4-1.4,9.7c-1.6-0.8-3-1.7-4.2-2.6c-1.9-1.4-3.1-3.1-3.3-5
			C1637.1,759.7,1637.5,752,1646,757.6z"/>
		<path class="st6" d="M1644.6,767.3c-0.2,1.5-0.4,3.1-0.6,4.6c-1.2,0-2.3-0.2-3.5-0.5c-5.7-1.4-0.1-6.8-0.1-6.8
			C1641.6,765.7,1643,766.5,1644.6,767.3z"/>
		<path class="st6" d="M1636.9,907.7c0.2,3,0.4,5.9,0.6,8.9c-3.8,0.3-9.4-0.5-5.1-7.6c0,0,0.4-0.1,1.1-0.2
			C1634.2,908.5,1635.4,908.2,1636.9,907.7z"/>
	</g>
</g>
</svg>
