<svg id="Layer_1" data-name="Layer 1" xmlns="http://www.w3.org/2000/svg" viewBox="0 0 433.9 246.49"><defs><style>.cls-1{fill:#f46a45;}.cls-2{fill:#ea6147;}.cls-3{fill:#754d44;}.cls-4{fill:#ff6f3f;}.cls-5{fill:#ffaf3f;}.cls-6{fill:#dd8e37;}.cls-7{fill:#ed9b3a;}</style></defs><title>treefort1</title><path class="cls-1" d="M1734.1,157v37.2l-5.1-.8c-3.2-.5-7.8-1-13.4-1.7-4.2-.4-9.1-.8-14.3-1-2.1-.1-4.1-.3-6.2-.3a188.4,188.4,0,0,0-21.3.4,83.73,83.73,0,0,0-23.2,4.6l-3.2-38.5C1647.4,157,1706.2,150.7,1734.1,157Z" transform="translate(-1300.2 -150.11)"/><path class="cls-2" d="M1729,193.5c4.1,46.1-12.6,118.6-12.6,118.6-2.3,2.7-4.5,5.4-6.5,8-5.6-30.4,5.8-128.3,5.8-128.3C1721.1,192.4,1725.7,193,1729,193.5Z" transform="translate(-1300.2 -150.11)"/><path class="cls-1" d="M1689.3,296.6c-1.7-46.9,12.1-105.8,12.1-105.8,5.1.3,10,.6,14.3,1,0,0-11.4,97.8-5.8,128.3-10.8,13.4-19.4,25.3-26.2,35.4-31.8-49.4-9.8-164.6-9.8-164.6,6.9-.5,14.3-.6,21.3-.4C1685.7,219.8,1687.5,270.3,1689.3,296.6Zm.2,3.7a122.42,122.42,0,0,0,1,12.3C1690.4,310.6,1689.9,306.3,1689.5,300.3Z" transform="translate(-1300.2 -150.11)"/><path class="cls-3" d="M1689.5,300.3c.4,6,.9,10.3,1,12.3C1690.1,308.6,1689.7,304.5,1689.5,300.3Z" transform="translate(-1300.2 -150.11)"/><path class="cls-4" d="M1683.6,355.5c-15.1,22.6-21.1,36.1-21.1,36.1V355.5l-11.9-160c6.7-2.6,14.8-4,23.2-4.6C1673.9,190.9,1651.8,306.1,1683.6,355.5Z" transform="translate(-1300.2 -150.11)"/><path class="cls-4" d="M1487.7,357l8-.1,27.3-.3,37.7-.3,11.9-.1,34.5-.3,35.3-.4,20-.1v36.1a178.76,178.76,0,0,0-33.3-4c-18.1-.4-213.9-1.3-213.9-1.3s-29.3,2.3-74.6,10.4l-6.4-38.4,12.5-.1,30.9-.3h3.3l31.1-.3,9.2-.1,27.7-.3,15.7-.1Z" transform="translate(-1300.2 -150.11)"/><path class="cls-4" d="M1554.9,200.3l-41.1,2.1-27.1,1.3-7.4.8-5.4.6-32.4,3.5-7.6.8-30.8,3.3-5,.5-32.5,3.5-7.2.8-30.9,3.3-19.3,2.1-8-36.1s167.4-15.8,347.2-29.7l3.2,38.5-5.6.3-43.7,2.2-9.8.5-32.5,1.5Z" transform="translate(-1300.2 -150.11)"/><path class="cls-2" d="M1601.3,198l43.7-2.2s-.8,139.2-2.4,159.8l-35.3.4v-.5a17.91,17.91,0,0,1-1.9-5.9v-.1C1608.1,343.9,1601.3,198,1601.3,198Z" transform="translate(-1300.2 -150.11)"/><path class="cls-1" d="M1607.2,355.5v.5l-34.5.3v-.8c-12.8-8.1-13.6-155.5-13.6-155.5l32.5-1.5s7.3,121.3,13.7,151v.1C1606,352.7,1606.6,354.6,1607.2,355.5Z" transform="translate(-1300.2 -150.11)"/><path class="cls-2" d="M1560.8,356.4l-37.7.3c-7.2-11.2-9.2-154.3-9.2-154.3l41.1-2.1C1554.6,207.1,1549.3,340.7,1560.8,356.4Z" transform="translate(-1300.2 -150.11)"/><path class="cls-4" d="M1523,356.7l-27.3.3v-.3c-7.6-20.4-16.4-151.9-16.4-151.9v-.4l7.4-.8,27.1-1.3S1515.8,345.5,1523,356.7Z" transform="translate(-1300.2 -150.11)"/><polygon class="cls-2" points="173.6 54.89 187.5 206.89 164.7 207.09 141.3 58.39 173.6 54.89"/><polygon class="cls-2" points="133.7 59.19 149 207.19 121.3 207.49 102.9 62.99 102.9 62.49 133.7 59.19"/><path class="cls-1" d="M1412.2,357.7l-31.1.3v-.6l-15.5-140.7,32.5-3.5C1398.1,213.1,1397.1,342.1,1412.2,357.7Z" transform="translate(-1300.2 -150.11)"/><polygon class="cls-1" points="58.2 67.29 77.6 207.79 46.7 208.09 27.3 70.59 58.2 67.29"/><path class="cls-5" d="M1614.9,160.9l-11.8,1.3h-.2c-6.5-1.5-15-.1-15-.1v.1a24.32,24.32,0,0,0-3-.9C1585.8,159.3,1598.1,137.4,1614.9,160.9Z" transform="translate(-1300.2 -150.11)"/><path class="cls-6" d="M1603,162.1c5.5,1.4,9.3,4.7,4.8,12.9a12.93,12.93,0,0,0-2.2-2.2s-8.3-6.9-16.1-10.2a17.72,17.72,0,0,0-1.7-.6h0s8.5-1.4,15,.1Z" transform="translate(-1300.2 -150.11)"/><path class="cls-7" d="M1607.8,175c1.9,2.2,3.2,5.4-2.2,7.4a6.61,6.61,0,0,1-3.4.3,18.07,18.07,0,0,1-4.7-1.2c-6.4-2.6-13.4-8.3-16.4-11.1-1-.8-1.6-1.4-1.6-1.4s-4.5-9.3,4.5-8.1a2.54,2.54,0,0,1,.7.2h.1a17.1,17.1,0,0,1,3,.9,17.72,17.72,0,0,1,1.7.6c7.8,3.3,16.1,10.2,16.1,10.2A13.31,13.31,0,0,1,1607.8,175Z" transform="translate(-1300.2 -150.11)"/><path class="cls-5" d="M1602.3,182.9c13.4,63.5-42.4,71.3-42.4,71.3-1.7-2.8-4.8-9.2-2.8-13.4,0,0,46.6-14,32.5-57.8a35.45,35.45,0,0,0,8-1.4,22.13,22.13,0,0,0,4.7,1.3Z" transform="translate(-1300.2 -150.11)"/><path class="cls-6" d="M1597.6,181.6a36.39,36.39,0,0,1-8,1.4c-14.1.6-8.4-12.4-8.4-12.4C1584.2,173.3,1591.2,179,1597.6,181.6Z" transform="translate(-1300.2 -150.11)"/><path class="cls-7" d="M1560.8,255.8s4.5,11-7.2,15.1a5.92,5.92,0,0,1-2.1.4c-1.8-.1-3-1.4-3.9-3.3-3.3-7.8-.2-26.9-.2-26.9,6.4-8.5,9.7-.2,9.7-.2-2,4.2,1.2,10.6,2.8,13.4C1560.4,255.2,1560.8,255.8,1560.8,255.8Z" transform="translate(-1300.2 -150.11)"/><path class="cls-7" d="M1551.5,271.2l-.1.5c-2.4,4.7-10.4.6-10.4.6-4.6-3.5-3.8-10.3-3.7-11.2,1-.2,2-.4,3-.7h.1a56.42,56.42,0,0,0,7.1,7.4C1548.4,269.9,1549.7,271.1,1551.5,271.2Z" transform="translate(-1300.2 -150.11)"/><path class="cls-6" d="M1547.4,241s-3.1,19.1.2,26.9a56.42,56.42,0,0,1-7.1-7.4h-.1c-2.9-3.8-5.7-8.5-5.4-12.9a8.89,8.89,0,0,1,1.8-4.8C1536.7,242.8,1539.4,235.2,1547.4,241Z" transform="translate(-1300.2 -150.11)"/><path class="cls-5" d="M1540.3,260.5l-3,.6v.1c-56.4,12.1-75.7-45.8-75.7-45.8,4.3.5,10.2.6,14.5-1.7,0,0,16,40.7,58.9,33.9C1534.6,252,1537.4,256.7,1540.3,260.5Z" transform="translate(-1300.2 -150.11)"/><path class="cls-7" d="M1463.6,196.5a20.09,20.09,0,0,1,4.3-1.5c4.2-1.1,8.3-1,11.4,1.4,0,0,4.2,2.7,2.3,6.3,0,0-22.1,4-25.6,11.6,0,0-11.3,1.4-8.3-8.1A62.85,62.85,0,0,1,1463.6,196.5Z" transform="translate(-1300.2 -150.11)"/><path class="cls-6" d="M1481.5,202.6c.3,5.9-2.1,9.3-5.5,11.1-4.3,2.3-10.2,2.2-14.5,1.7a39.5,39.5,0,0,1-5.7-1.1C1459.4,206.7,1481.5,202.6,1481.5,202.6Z" transform="translate(-1300.2 -150.11)"/><path class="cls-5" d="M1467.9,195a20.09,20.09,0,0,0-4.3,1.5,55.47,55.47,0,0,0-10.7-2.3v-.1s-6.1-18.7-13.4-18.7l-5.7.4s8.8-11.9,22-1.8C1455.9,174.1,1465.2,182.6,1467.9,195Z" transform="translate(-1300.2 -150.11)"/><path class="cls-6" d="M1452.9,194.2a55.47,55.47,0,0,1,10.7,2.3c-8.3,3.3-16,9.7-16,9.7-5.4,1-6.2-2.4-6.2-2.4C1439.2,194.9,1446.3,193.6,1452.9,194.2Z" transform="translate(-1300.2 -150.11)"/></svg>