<?xml version="1.0" encoding="utf-8"?>
<!-- Generator: Adobe Illustrator 23.0.1, SVG Export Plug-In . SVG Version: 6.00 Build 0)  -->
<svg version="1.1" id="Layer_1" xmlns="http://www.w3.org/2000/svg" xmlns:xlink="http://www.w3.org/1999/xlink" x="0px" y="0px"
	 viewBox="0 0 253.2 374.3" style="enable-background:new 0 0 253.2 374.3;" xml:space="preserve">
<style type="text/css">
	.st0{fill:#010202;}
</style>
<path class="st0" d="M209.6,0l-9.4,7.4l3.8,4.8L79.5,119.6l1.5,1.9l-57.9,49.2l1.6,2L0,194.2l15,19.3l26.4-19.3l1.4,1.8l61.8-44.1
	l1.3,1.7l11.8-8.4l3.3,5.7c1.5,2.5,4.7,3.4,7.2,1.9l0.4-0.2l-0.2,16.9L59.2,374.3h13.4l55.8-162.2v162.2h16.9l-2.2-162.5l55.8,162.5
	h14.4l-70.2-204.9v-25.3l5.4-3.1c2.5-1.5,3.4-4.7,1.9-7.2l-4.9-8.5l94.7-67.2l3.5,4.4l9.6-7.1L209.6,0z"/>
</svg>
